#!OML:ASF F:\VICON\USERDATA\INSTALL\rory3\rory3.ASF
:FULLY-SPECIFIED
:DEGREES
80
root 15.4149 17.8854 -6.0808 -17.9524 -81.853 16.2351
lowerback 12.4566 1.16242 2.78124
upperback 0.261705 1.93524 0.31332
thorax -6.63669 0.849637 -1.58374
lowerneck -20.3091 -2.51349 -10.5647
upperneck 34.3668 -1.77039 3.54681
head 15.7204 -1.8921 2.94714
rclavicle -4.53726e-014 -1.98785e-014
rhumerus -33.7251 -19.9043 -73.2152
rradius 28.6185
rwrist 5.91733
rhand -17.1596 7.95673
rfingers 7.12502
rthumb 9.08135 -21.8278
lclavicle -4.53726e-014 -1.98785e-014
lhumerus -35.2036 11.2877 79.8257
lradius 31.1595
lwrist -6.18155
lhand -18.5558 23.3271
lfingers 7.12502
lthumb 7.73393 53.1656
rfemur -6.65675 1.80959 17.254
rtibia 30.8861
rfoot -18.5534 -1.70302
rtoes 5.34491
lfemur -10.7985 -2.58767 -13.7975
ltibia 35.5622
lfoot -14.4554 6.76885
ltoes -22.1194
81
root 15.4032 17.8914 -6.02101 -19.7931 -81.9526 18.0058
lowerback 12.5512 1.25905 2.53675
upperback 0.293607 2.02533 0.239525
thorax -6.65732 0.89996 -1.542
lowerneck -20.3506 -2.63589 -10.8969
upperneck 34.3841 -1.91421 3.79695
head 15.7619 -1.96045 3.0863
rclavicle -6.66426e-014 9.54166e-015
rhumerus -33.8287 -19.9444 -73.177
rradius 28.6117
rwrist 6.68213
rhand -16.801 8.00986
rfingers 7.12502
rthumb 9.4274 -21.7593
lclavicle -6.66426e-014 9.54166e-015
lhumerus -35.1798 11.1254 79.8179
lradius 31.2059
lwrist -5.77872
lhand -18.5711 23.5324
lfingers 7.12502
lthumb 7.71915 53.3715
rfemur -6.4025 2.10715 16.8428
rtibia 30.6755
rfoot -18.4875 -1.81456
rtoes 4.90828
lfemur -10.4504 -3.453 -13.3698
ltibia 34.8145
lfoot -13.7565 7.21378
ltoes -21.1462
82
root 15.3938 17.8957 -5.96276 -23.0899 -81.9982 21.293
lowerback 12.6785 1.35213 2.01025
upperback 0.273482 2.06961 0.131544
thorax -6.7626 0.935113 -1.37152
lowerneck -20.493 -2.68005 -11.16
upperneck 34.5468 -1.93723 3.98519
head 15.8848 -1.98549 3.21362
rclavicle 1.73937e-015 -1.35174e-014
rhumerus -33.9438 -19.8274 -73.1384
rradius 28.5956
rwrist 7.7592
rhand -16.1917 8.21643
rfingers 7.12502
rthumb 10.0152 -21.5253
lclavicle 1.73937e-015 -1.35174e-014
lhumerus -35.2794 11.5176 79.5906
lradius 31.1804
lwrist -5.87751
lhand -18.801 23.6009
lfingers 7.12502
lthumb 7.49723 53.448
rfemur -6.227 2.47011 16.2244
rtibia 30.4713
rfoot -18.4389 -2.04604
rtoes 4.02054
lfemur -10.1511 -4.08316 -13.1615
ltibia 34.0335
lfoot -13.1332 7.34562
ltoes -19.6597
83
root 15.3825 17.9016 -5.89381 -24.0348 -82.1051 22.3341
lowerback 12.6407 1.35263 1.95389
upperback 0.249737 2.05637 0.0456695
thorax -6.76584 0.929245 -1.42732
lowerneck -20.6415 -2.62711 -11.1116
upperneck 34.6032 -1.86201 4.004
head 15.9382 -1.94621 3.22998
rclavicle 3.34952e-014 -5.56597e-015
rhumerus -33.8906 -19.4122 -73.372
rradius 28.5269
rwrist 8.37393
rhand -15.8359 8.28427
rfingers 7.12502
rthumb 10.3585 -21.4406
lclavicle 3.34952e-014 -5.56597e-015
lhumerus -35.2766 11.9023 79.3254
lradius 31.116
lwrist -5.79969
lhand -18.9988 23.8122
lfingers 7.12502
lthumb 7.30627 53.6661
rfemur -6.1947 2.64161 15.899
rtibia 30.2778
rfoot -18.3736 -2.12216
rtoes 3.16369
lfemur -10.0237 -4.38867 -12.5981
ltibia 33.2295
lfoot -12.3861 7.13495
ltoes -19.0487
84
root 15.3695 17.9041 -5.82209 -24.1416 -82.271 22.4318
lowerback 12.6496 1.34214 2.0801
upperback 0.273118 2.05608 -0.012171
thorax -6.73937 0.92443 -1.55924
lowerneck -20.7637 -2.5418 -10.7883
upperneck 34.6387 -1.7594 3.78436
head 15.9654 -1.8923 3.0988
rclavicle 1.25234e-014 1.59028e-015
rhumerus -33.8256 -19.2575 -73.5834
rradius 28.4783
rwrist 8.80371
rhand -16.0004 8.29069
rfingers 7.12502
rthumb 10.1997 -21.442
lclavicle 1.25234e-014 1.59028e-015
lhumerus -35.2205 11.9218 79.1596
lradius 31.1192
lwrist -5.47689
lhand -18.793 24.1563
lfingers 7.12502
lthumb 7.505 54.0032
rfemur -6.05355 2.77103 15.716
rtibia 30.1256
rfoot -18.3773 -2.16707
rtoes 3.12111
lfemur -9.77477 -4.60729 -11.8673
ltibia 32.4
lfoot -11.8392 6.78788
ltoes -18.7213
85
root 15.3571 17.9039 -5.74838 -24.8359 -82.4318 23.0816
lowerback 12.7446 1.34718 2.14382
upperback 0.256686 2.06906 -0.0905298
thorax -6.80458 0.926154 -1.68356
lowerneck -20.8008 -2.47777 -10.6333
upperneck 34.7077 -1.70351 3.73087
head 15.9985 -1.85988 3.06095
rclavicle 2.1419e-014 -3.18055e-015
rhumerus -33.863 -19.1561 -73.7471
rradius 28.4179
rwrist 9.1497
rhand -16.2131 8.54538
rfingers 7.12502
rthumb 9.99458 -21.1973
lclavicle 2.1419e-014 -3.18055e-015
lhumerus -35.3138 12.1076 78.8953
lradius 31.1369
lwrist -5.52931
lhand -18.7853 24.1189
lfingers 7.12502
lthumb 7.51241 53.9655
rfemur -5.87098 3.00615 15.4708
rtibia 29.9849
rfoot -18.3881 -2.30602
rtoes 2.57095
lfemur -9.43818 -5.06063 -11.276
ltibia 31.5356
lfoot -11.3519 6.68115
ltoes -19.6793
86
root 15.3466 17.8997 -5.67252 -26.0111 -82.492 24.2891
lowerback 12.7628 1.35378 2.11241
upperback 0.232792 2.06745 -0.19016
thorax -6.8377 0.924229 -1.77191
lowerneck -20.7411 -2.46266 -10.5959
upperneck 34.6511 -1.70222 3.73132
head 15.9551 -1.85226 3.05338
rclavicle 1.92821e-014 -2.38542e-015
rhumerus -33.9134 -19.1067 -73.8561
rradius 28.3988
rwrist 9.53328
rhand -15.8934 8.78049
rfingers 7.12502
rthumb 10.303 -20.9471
lclavicle 1.92821e-014 -2.38542e-015
lhumerus -35.3721 12.3339 78.6669
lradius 31.0687
lwrist -5.58952
lhand -18.9704 23.6863
lfingers 7.12502
lthumb 7.3337 53.5392
rfemur -5.79041 3.14311 15.0798
rtibia 29.8911
rfoot -18.3668 -2.27701
rtoes 2.10861
lfemur -9.18553 -5.52104 -10.7744
ltibia 30.584
lfoot -10.8474 6.20594
ltoes -20.1253
87
root 15.332 17.8979 -5.59715 -26.6329 -82.578 25.0102
lowerback 12.6294 1.41797 2.10209
upperback 0.237739 2.14863 -0.189237
thorax -6.75424 0.965956 -1.77522
lowerneck -20.6977 -2.52291 -10.7238
upperneck 34.5603 -1.73092 3.70115
head 15.9066 -1.881 3.05455
rclavicle -1.55549e-014 6.36111e-015
rhumerus -33.8832 -19.0038 -73.8052
rradius 28.3521
rwrist 9.88797
rhand -15.4315 8.81842
rfingers 7.12502
rthumb 10.7486 -20.8866
lclavicle -1.55549e-014 6.36111e-015
lhumerus -35.358 12.7295 78.6074
lradius 30.9848
lwrist -5.76156
lhand -18.7005 23.3132
lfingers 7.12502
lthumb 7.59423 53.1568
rfemur -5.81386 3.21193 14.7462
rtibia 29.8434
rfoot -18.3864 -2.14962
rtoes 2.48056
lfemur -8.98729 -5.88176 -10.1901
ltibia 29.525
lfoot -10.1554 5.50024
ltoes -21.0462
88
root 15.316 17.8994 -5.51878 -26.716 -82.7731 25.146
lowerback 12.5498 1.53497 2.24004
upperback 0.211638 2.3283 -0.117333
thorax -6.72713 1.051 -1.80688
lowerneck -20.6434 -2.67758 -11.2662
upperneck 34.6022 -1.84125 3.91041
head 15.9405 -1.97244 3.21922
rclavicle 1.39149e-015 -1.11319e-014
rhumerus -33.9218 -18.8757 -73.6805
rradius 28.2986
rwrist 10.0482
rhand -15.3764 8.68279
rfingers 7.12502
rthumb 10.8017 -21.0195
lclavicle 1.39149e-015 -1.11319e-014
lhumerus -35.3934 12.8085 78.7646
lradius 30.9419
lwrist -5.5629
lhand -19.0573 23.4187
lfingers 7.12502
lthumb 7.24986 53.2745
rfemur -5.80881 3.43345 14.5416
rtibia 29.838
rfoot -18.4823 -2.02688
rtoes 3.23002
lfemur -8.64298 -6.54367 -9.52171
ltibia 28.3914
lfoot -9.63685 4.81309
ltoes -20.5726
89
root 15.2965 17.8975 -5.43854 -28.4517 -82.9631 26.9024
lowerback 12.4828 1.65916 2.17661
upperback 0.20396 2.48004 -0.161938
thorax -6.69141 1.12732 -1.84276
lowerneck -20.566 -2.77923 -11.6219
upperneck 34.577 -1.95537 4.14525
head 15.932 -2.03339 3.36083
rclavicle -3.84151e-014 3.97569e-015
rhumerus -34.0325 -18.6234 -73.7322
rradius 28.3564
rwrist 9.99936
rhand -15.4864 8.587
rfingers 7.12502
rthumb 10.6956 -21.1208
lclavicle -3.84151e-014 3.97569e-015
lhumerus -35.4002 12.6267 78.8056
lradius 30.876
lwrist -5.39599
lhand -19.7088 23.7103
lfingers 7.12502
lthumb 6.62092 53.5868
rfemur -5.74945 3.81319 14.1436
rtibia 29.8343
rfoot -18.5754 -1.91615
rtoes 3.84974
lfemur -8.18117 -7.13802 -9.07945
ltibia 27.2303
lfoot -9.33103 3.96573
ltoes -19.8359
